<svg width="20" height="20" viewBox="0 0 20 20" fill="none" xmlns="http://www.w3.org/2000/svg">
  <path d="M10.0118 1.62744C5.40947 1.62744 1.67847 5.35827 1.67847 9.96077C1.67847 14.5633 5.40947 18.2941 10.0118 18.2941C14.6143 18.2941 18.3451 14.5633 18.3451 9.96077C18.3451 5.35827 14.6143 1.62744 10.0118 1.62744ZM10.0118 3.29411C13.6935 3.29411 16.6785 6.27911 16.6785 9.96077C16.6785 13.6424 13.6935 16.6274 10.0118 16.6274C6.32989 16.6274 3.34513 13.6424 3.34513 9.96077C3.34513 6.27911 6.32989 3.29411 10.0118 3.29411ZM10.0118 5.79411C9.55181 5.79411 9.17847 6.16744 9.17847 6.62744V9.12744H6.67847C6.21822 9.12744 5.84514 9.50077 5.84514 9.96077C5.84514 10.4208 6.21822 10.7941 6.67847 10.7941H9.17847V13.2941C9.17847 13.7541 9.55181 14.1274 10.0118 14.1274C10.4718 14.1274 10.8451 13.7541 10.8451 13.2941V10.7941H13.3451C13.8051 10.7941 14.1785 10.4208 14.1785 9.96077C14.1785 9.50077 13.8051 9.12744 13.3451 9.12744H10.8451V6.62744C10.8451 6.16744 10.4718 5.79411 10.0118 5.79411Z" fill="#322C27" />
</svg>