<svg width="20" height="20" viewBox="0 0 20 20" fill="none" xmlns="http://www.w3.org/2000/svg">
  <path d="M5.0118 3.33154C3.17097 3.33154 1.67847 4.82404 1.67847 6.66487V13.3315C1.67847 15.1724 3.17097 16.6649 5.0118 16.6649L7.51931 16.6732C7.87431 16.6732 8.24597 16.8365 8.6718 17.229C8.83764 17.3824 9.03597 17.5741 9.17097 17.7532C9.32097 17.9532 9.51681 18.334 10.0118 18.3315C10.5068 18.329 10.6676 17.9924 10.8451 17.7582C10.9793 17.5932 11.1401 17.4357 11.306 17.2824C11.7326 16.8899 12.1568 16.6649 12.5118 16.6649H15.0118C16.8526 16.6649 18.3451 15.1724 18.3451 13.3315V6.66487C18.3451 4.82404 16.8526 3.33154 15.0118 3.33154H12.5118C11.5026 3.33154 10.6235 3.79488 10.0118 4.50321C9.40014 3.79488 8.52097 3.33154 7.5118 3.33154H5.0118ZM5.0118 4.99821H7.5118C8.43264 4.99821 9.17847 5.74404 9.17847 6.66487L9.18348 15.539C8.66348 15.2015 8.10514 14.9982 7.5118 14.9982H5.0118C4.09097 14.9982 3.34513 14.2524 3.34513 13.3315V6.66487C3.34513 5.74404 4.09097 4.99821 5.0118 4.99821ZM12.5118 4.99821H15.0118C15.9326 4.99821 16.6785 5.74404 16.6785 6.66487V13.3315C16.6785 14.2524 15.9326 14.9982 15.0118 14.9982H12.5118C11.9185 14.9982 11.3618 15.2124 10.8418 15.5499L10.8451 6.66487C10.8451 5.74404 11.591 4.99821 12.5118 4.99821Z" fill="#322C27" />
</svg>