<svg width="20" height="20" viewBox="0 0 20 20" fill="none" xmlns="http://www.w3.org/2000/svg">
  <path d="M6.67164 1.67871C6.21139 1.67871 5.83831 2.05204 5.83831 2.51204C3.99656 2.51204 2.50497 4.00538 2.50497 5.84538V7.51204V14.1787C2.50497 16.0187 3.99739 17.512 5.83831 17.512H14.1716C16.0125 17.512 17.505 16.0195 17.505 14.1787V7.51204V5.84538C17.505 4.00788 16.0116 2.51204 14.1716 2.51204C14.1716 2.05204 13.7983 1.67871 13.3383 1.67871C12.8783 1.67871 12.505 2.05204 12.505 2.51204H7.50497C7.50497 2.05204 7.13189 1.67871 6.67164 1.67871ZM5.83831 4.17871C5.83831 4.63871 6.21139 5.01204 6.67164 5.01204C7.13189 5.01204 7.50497 4.63871 7.50497 4.17871H12.505C12.505 4.63871 12.8783 5.01204 13.3383 5.01204C13.7983 5.01204 14.1716 4.63871 14.1716 4.17871C15.0891 4.17871 15.8383 4.92204 15.8383 5.84538V6.67871C14.2333 6.67871 5.77631 6.67871 4.17164 6.67871V5.84538C4.17164 4.92704 4.91531 4.17871 5.83831 4.17871ZM4.17164 8.34538C5.77539 8.34538 14.2341 8.34538 15.8383 8.34538V14.1787C15.8383 15.0979 15.0925 15.8454 14.1716 15.8454H5.83831C4.91781 15.8454 4.17164 15.0995 4.17164 14.1787V8.34538ZM6.67164 10.012C6.21139 10.012 5.83831 10.3854 5.83831 10.8454C5.83831 11.3054 6.21139 11.6787 6.67164 11.6787C7.13189 11.6787 7.50497 11.3054 7.50497 10.8454C7.50497 10.3854 7.13189 10.012 6.67164 10.012ZM10.005 10.012C9.54497 10.012 9.17164 10.3854 9.17164 10.8454C9.17164 11.3054 9.54497 11.6787 10.005 11.6787C10.465 11.6787 10.8383 11.3054 10.8383 10.8454C10.8383 10.3854 10.465 10.012 10.005 10.012ZM13.3383 10.012C12.8783 10.012 12.505 10.3854 12.505 10.8454C12.505 11.3054 12.8783 11.6787 13.3383 11.6787C13.7983 11.6787 14.1716 11.3054 14.1716 10.8454C14.1716 10.3854 13.7983 10.012 13.3383 10.012ZM6.67164 12.512C6.21139 12.512 5.83831 12.8854 5.83831 13.3454C5.83831 13.8054 6.21139 14.1787 6.67164 14.1787C7.13189 14.1787 7.50497 13.8054 7.50497 13.3454C7.50497 12.8854 7.13189 12.512 6.67164 12.512ZM10.005 12.512C9.54497 12.512 9.17164 12.8854 9.17164 13.3454C9.17164 13.8054 9.54497 14.1787 10.005 14.1787C10.465 14.1787 10.8383 13.8054 10.8383 13.3454C10.8383 12.8854 10.465 12.512 10.005 12.512ZM13.3383 12.512C12.8783 12.512 12.505 12.8854 12.505 13.3454C12.505 13.8054 12.8783 14.1787 13.3383 14.1787C13.7983 14.1787 14.1716 13.8054 14.1716 13.3454C14.1716 12.8854 13.7983 12.512 13.3383 12.512Z" fill="#322C27" />
</svg>