<svg width="20" height="20" viewBox="0 0 20 20" fill="none" xmlns="http://www.w3.org/2000/svg">
  <path d="M1.6472 1.66556C1.1872 1.66181 0.817198 2.03864 0.813865 2.49889C0.810531 2.95914 1.1872 3.32847 1.6472 3.33222C2.26219 3.33722 2.75386 3.7488 3.13136 4.53014C3.48469 5.26055 3.58802 5.86164 3.60052 5.93639L4.58969 12.3165C4.89302 13.836 6.333 14.9989 7.8455 14.9989H13.7822C15.2947 14.9989 16.7413 13.8252 17.038 12.3426L18.0538 5.5718C18.2896 4.39364 17.4196 3.33222 16.1788 3.33222H4.38136C3.75469 2.2998 2.79969 1.67489 1.6472 1.66556ZM5.11052 4.99889H16.1788C16.368 4.99889 16.4496 5.09914 16.413 5.28539L15.3972 12.0562C15.263 12.7204 14.5005 13.3322 13.7822 13.3322H7.8455C7.128 13.3322 6.37135 12.7337 6.23051 12.0301L5.26718 5.67597C5.23801 5.49872 5.17052 5.2178 5.11052 4.99889ZM9.14717 6.66555C8.93384 6.66555 8.71134 6.73722 8.54801 6.89989C8.22301 7.22539 8.22301 7.77238 8.54801 8.09788L9.61551 9.16555L8.54801 10.2332C8.22301 10.5587 8.22301 11.1057 8.54801 11.4312C8.87384 11.7566 9.4205 11.7566 9.74633 11.4312L10.8138 10.3635L11.8813 11.4312C12.2072 11.7566 12.7538 11.7566 13.0797 11.4312C13.4047 11.1057 13.4047 10.5587 13.0797 10.2332L12.0122 9.16555L13.0797 8.09788C13.4047 7.77238 13.4047 7.22539 13.0797 6.89989C12.9163 6.73722 12.6938 6.66555 12.4805 6.66555C12.2672 6.66555 12.0447 6.73722 11.8813 6.89989L10.8138 7.96764L9.74633 6.89989C9.583 6.73722 9.3605 6.66555 9.14717 6.66555ZM7.06384 15.8322C6.37385 15.8322 5.81385 16.3919 5.81385 17.0822C5.81385 17.7725 6.37385 18.3322 7.06384 18.3322C7.75384 18.3322 8.31384 17.7725 8.31384 17.0822C8.31384 16.3919 7.75384 15.8322 7.06384 15.8322ZM14.5638 15.8322C13.8738 15.8322 13.3138 16.3919 13.3138 17.0822C13.3138 17.7725 13.8738 18.3322 14.5638 18.3322C15.2538 18.3322 15.8138 17.7725 15.8138 17.0822C15.8138 16.3919 15.2538 15.8322 14.5638 15.8322Z" fill="#322C27" />
</svg>