<svg width="20" height="20" viewBox="0 0 20 20" fill="none" xmlns="http://www.w3.org/2000/svg">
  <path d="M9.16571 2.49219C7.32488 2.49219 5.83238 3.98469 5.83238 5.82552H4.99904C3.26571 5.82552 1.87822 7.15552 1.71739 8.84635C2.13905 8.99052 7.78571 10.878 7.78571 10.8772C8.98154 11.2764 11.0165 11.2764 12.2124 10.8772C12.2124 10.8772 16.5307 9.43552 18.3065 8.84635C18.1524 7.14885 16.7365 5.82552 14.999 5.82552H14.1657C14.1657 3.98469 12.6732 2.49219 10.8324 2.49219H9.16571ZM9.16571 4.15885H10.8324C11.7532 4.15885 12.499 4.90469 12.499 5.82552H7.49904C7.49904 4.90469 8.24488 4.15885 9.16571 4.15885ZM1.66571 10.5913V14.1589C1.66571 15.9997 3.15821 17.4922 4.99904 17.4922H14.999C16.8399 17.4922 18.3324 15.9997 18.3324 14.1589V10.5913L12.7332 12.4663C11.1957 12.9788 8.80237 12.9788 7.26487 12.4663L1.66571 10.5913Z" fill="#322C27" />
</svg>