<svg width="20" height="20" viewBox="0 0 20 20" fill="none" xmlns="http://www.w3.org/2000/svg">
  <path d="M4.16577 3.25537C2.78502 3.25537 1.66577 4.37462 1.66577 5.75537V13.8804C1.66577 15.3761 2.87836 16.5887 4.37411 16.5887H15.6241C17.1199 16.5887 18.3324 15.3761 18.3324 13.8804V7.42204C18.3324 6.96179 17.9594 6.5887 17.4991 6.5887H16.6658V4.0887C16.6658 3.62845 16.2927 3.25537 15.8324 3.25537H4.16577ZM4.16577 4.92204H14.9991V6.5887H4.16577C3.70552 6.5887 3.33244 6.21562 3.33244 5.75537C3.33244 5.29512 3.70552 4.92204 4.16577 4.92204ZM4.16577 8.25537H16.6658V13.8804C16.6658 14.4557 16.1994 14.922 15.6241 14.922H4.37411C3.79877 14.922 3.33244 14.4557 3.33244 13.8804L3.33727 8.10879C3.33727 8.10879 3.63561 8.25795 4.16577 8.25537ZM14.1658 10.7554C13.7055 10.7554 13.3324 11.1285 13.3324 11.5887C13.3324 12.049 13.7055 12.422 14.1658 12.422C14.626 12.422 14.9991 12.049 14.9991 11.5887C14.9991 11.1285 14.626 10.7554 14.1658 10.7554Z" fill="#322C27" />
</svg>