<svg width="20" height="20" viewBox="0 0 20 20" fill="none" xmlns="http://www.w3.org/2000/svg">
  <path d="M4.17847 3.33154C2.79772 3.33154 1.67847 4.45071 1.67847 5.83154V12.4982C1.67847 13.879 2.79772 14.9982 4.17847 14.9982H5.06388C5.52413 14.9982 5.89722 14.6249 5.89722 14.1649C5.89722 13.7049 5.52413 13.3315 5.06388 13.3315H4.17847C3.71822 13.3315 3.34513 12.9582 3.34513 12.4982V5.83154C3.34513 5.37154 3.71822 4.99821 4.17847 4.99821H15.8451C16.3051 4.99821 16.6785 5.37154 16.6785 5.83154V12.4982C16.6785 12.9582 16.3051 13.3315 15.8451 13.3315H15.0118C14.5518 13.3315 14.1785 13.7049 14.1785 14.1649C14.1785 14.6249 14.5518 14.9982 15.0118 14.9982H15.8451C17.226 14.9982 18.3451 13.879 18.3451 12.4982V5.83154C18.3451 4.45071 17.226 3.33154 15.8451 3.33154H4.17847ZM10.0118 12.4982C9.79847 12.4982 9.57597 12.5699 9.41263 12.7324L6.07946 16.0657C5.55455 16.5907 5.93605 17.4982 6.67847 17.4982H13.3451C14.0876 17.4982 14.4693 16.5907 13.9443 16.0657C13.5276 15.649 11.0276 13.149 10.611 12.7324C10.4476 12.5699 10.2251 12.4982 10.0118 12.4982Z" fill="#322C27" />
</svg>