<svg width="20" height="20" viewBox="0 0 20 20" fill="none" xmlns="http://www.w3.org/2000/svg">
  <path d="M5.83148 1.66553C4.91065 1.66553 4.16482 2.41169 4.16482 3.33219V13.3322C4.16482 14.2527 4.91065 14.9989 5.83148 14.9989H7.49815C8.41898 14.9989 9.16482 14.2527 9.16482 13.3322V3.33219C9.16482 2.41169 8.41898 1.66553 7.49815 1.66553H5.83148ZM5.83148 3.33219H7.49815V13.3322H5.83148V3.33219ZM12.4981 6.66553C11.5773 6.66553 10.8315 7.41169 10.8315 8.33219V13.3322C10.8315 14.2527 11.5773 14.9989 12.4981 14.9989H14.1648C15.0856 14.9989 15.8315 14.2527 15.8315 13.3322V8.33219C15.8315 7.41169 15.0856 6.66553 14.1648 6.66553H12.4981ZM12.4981 8.33219H14.1648V13.3322H12.4981V8.33219ZM4.16482 16.6655C3.70482 16.6655 3.33148 17.0386 3.33148 17.4989C3.33148 17.9591 3.70482 18.3322 4.16482 18.3322H15.8315C16.2915 18.3322 16.6648 17.9591 16.6648 17.4989C16.6648 17.0386 16.2915 16.6655 15.8315 16.6655H4.16482Z" fill="#322C27" />
</svg>