<svg width="20" height="20" viewBox="0 0 20 20" fill="none" xmlns="http://www.w3.org/2000/svg">
  <path d="M5.83199 2.49219C3.99107 2.49219 2.49866 3.98469 2.49866 5.82552V10.8255C2.49866 12.6664 3.99107 14.1589 5.83199 14.1589H6.32682C6.03316 14.3497 5.84207 14.6622 5.93616 15.018C6.03191 15.3805 6.19616 15.7255 6.40491 16.0339C6.66282 16.4147 7.16957 16.5005 7.55074 16.2422C7.93191 15.9847 8.04299 15.4772 7.78516 15.0964C7.68082 14.9422 7.59832 14.7555 7.55074 14.5755C7.50066 14.3864 7.35741 14.263 7.21216 14.1589H10.832C12.6729 14.1589 14.1653 12.6664 14.1653 10.8255V7.49219C14.355 7.49219 14.538 7.53552 14.7122 7.59635C15.1469 7.74719 15.6287 7.51052 15.7799 7.07552C15.9312 6.64052 15.6937 6.15885 15.2591 6.00802C14.9094 5.88635 14.5421 5.82552 14.1653 5.82552C14.1653 3.98469 12.6729 2.49219 10.832 2.49219H5.83199ZM5.83199 4.15885H10.832C11.7525 4.15885 12.4987 4.90469 12.4987 5.82552V10.8255C12.4987 11.7464 11.7525 12.4922 10.832 12.4922H5.83199C4.91149 12.4922 4.16532 11.7464 4.16532 10.8255V5.82552C4.16532 4.90469 4.91149 4.15885 5.83199 4.15885ZM16.431 7.83053C15.9809 7.92719 15.7097 8.37052 15.806 8.82052C15.8287 8.92718 15.8305 9.02135 15.832 9.13302V9.49719C15.8322 9.95803 16.2051 10.3314 16.6653 10.3305C17.1256 10.3305 17.4989 9.95719 17.4987 9.49719V9.13302C17.4956 8.90135 17.4662 8.66969 17.4205 8.45553C17.3244 8.00553 16.8811 7.73469 16.431 7.83053ZM16.6653 11.1639C16.2051 11.1639 15.832 11.5372 15.832 11.9972V12.8305C15.832 13.2914 16.2051 13.6639 16.6653 13.6639C17.1256 13.6639 17.4987 13.2914 17.4987 12.8305V11.9972C17.4987 11.5372 17.1256 11.1639 16.6653 11.1639ZM16.1445 14.4972C15.9415 14.563 15.7548 14.7097 15.6497 14.9139C15.5646 15.0797 15.4463 15.228 15.3112 15.3572C14.9783 15.6747 14.9672 16.2222 15.2852 16.5547C15.603 16.8872 16.1242 16.8989 16.457 16.5805C16.7262 16.3239 16.9637 16.0005 17.1341 15.6689C17.3443 15.2597 17.1789 14.7597 16.7695 14.5497C16.5648 14.4447 16.3475 14.4322 16.1445 14.4972ZM9.32157 15.8255C8.86132 15.8255 8.48824 16.1989 8.48824 16.6589C8.48824 17.1189 8.86132 17.4922 9.32157 17.4922H10.1549C10.6152 17.4922 10.9882 17.1189 10.9882 16.6589C10.9882 16.1989 10.6152 15.8255 10.1549 15.8255H9.32157ZM12.6549 15.8255C12.1947 15.8255 11.8216 16.1989 11.8216 16.6589C11.8216 17.1189 12.1947 17.4922 12.6549 17.4922H13.4882C13.9485 17.4922 14.3216 17.1189 14.3216 16.6589C14.3216 16.1989 13.9485 15.8255 13.4882 15.8255H12.6549Z" fill="#322C27" />
</svg>