<svg width="20" height="20" viewBox="0 0 20 20" fill="none" xmlns="http://www.w3.org/2000/svg">
  <path d="M4.17841 3.33154C2.79757 3.33154 1.67841 4.45071 1.67841 5.83154V14.1649C1.67841 15.5457 2.79757 16.6649 4.17841 16.6649H15.8451C17.2259 16.6649 18.3451 15.5457 18.3451 14.1649V5.83154C18.3451 4.45071 17.2259 3.33154 15.8451 3.33154H4.17841ZM4.17841 4.99821H15.8451C16.3051 4.99821 16.6784 5.37154 16.6784 5.83154V11.6649H3.34507V5.83154C3.34507 5.37154 3.71841 4.99821 4.17841 4.99821ZM12.5117 6.66488C12.0517 6.66488 11.6784 7.03821 11.6784 7.49821C11.6784 7.95821 12.0517 8.33154 12.5117 8.33154H14.1784C14.6384 8.33154 15.0117 7.95821 15.0117 7.49821C15.0117 7.03821 14.6384 6.66488 14.1784 6.66488H12.5117ZM3.34507 13.3315H16.6784V14.1649C16.6784 14.6249 16.3051 14.9982 15.8451 14.9982H4.17841C3.71841 14.9982 3.34507 14.6249 3.34507 14.1649V13.3315Z" fill="#322C27" />
</svg>