<svg width="20" height="20" viewBox="0 0 20 20" fill="none" xmlns="http://www.w3.org/2000/svg">
  <path d="M12.9157 2.44141C10.8447 2.44141 9.16574 4.12057 9.16574 6.19141C9.16574 8.26224 10.8447 9.94141 12.9157 9.94141C14.9868 9.94141 16.6657 8.26224 16.6657 6.19141C16.6657 4.12057 14.9868 2.44141 12.9157 2.44141ZM6.66574 3.27474C4.82482 3.27474 3.33241 4.76724 3.33241 6.60807C3.33241 8.44891 4.82482 9.94141 6.66574 9.94141C7.35691 9.94141 8.01157 9.73058 8.56674 9.34224C8.94399 9.07891 9.03874 8.54807 8.77507 8.17057C8.51141 7.79307 8.00649 7.72474 7.62924 7.98808C7.35182 8.18224 7.01257 8.27474 6.66574 8.27474C5.74524 8.27474 4.99907 7.52891 4.99907 6.60807C4.99907 5.68724 5.74524 4.94141 6.66574 4.94141C6.93757 4.94141 7.18624 5.0014 7.42091 5.1239C7.82924 5.3364 8.35441 5.19308 8.56674 4.78475C8.77916 4.37725 8.61049 3.8514 8.20224 3.63973C7.73132 3.39473 7.20691 3.27474 6.66574 3.27474ZM12.9157 4.10807C14.0663 4.10807 14.9991 5.04057 14.9991 6.19141C14.9991 7.34224 14.0663 8.27474 12.9157 8.27474C11.7652 8.27474 10.8324 7.34224 10.8324 6.19141C10.8324 5.04057 11.7652 4.10807 12.9157 4.10807ZM4.21782 11.0614C2.68941 11.6922 1.66574 13.2381 1.66574 14.9414V16.6081C1.66574 17.0681 2.03882 17.4414 2.49907 17.4414H5.83241C6.29266 17.4414 6.66574 17.0681 6.66574 16.6081C6.66574 16.1481 6.29266 15.7747 5.83241 15.7747H3.33241V14.9414C3.33241 14.0047 3.88799 13.1448 4.52657 12.7664C5.12716 13.0198 5.76249 13.2114 6.32749 13.2589C6.78616 13.2981 7.19974 12.9522 7.23866 12.4931C7.27757 12.0347 6.94616 11.6464 6.48757 11.6073C6.12174 11.5764 5.72191 11.4664 5.25949 11.2697C5.14782 11.2222 5.08299 11.1847 4.86891 11.0872C4.65899 10.9914 4.43099 10.9731 4.21782 11.0614ZM10.0512 11.0614C8.52274 11.6922 7.49907 13.2381 7.49907 14.9414V16.6081C7.49907 17.0681 7.87216 17.4414 8.33241 17.4414H17.4991C17.9593 17.4414 18.3324 17.0681 18.3324 16.6081V14.9414C18.3324 13.2781 17.3031 11.7697 15.7803 11.1131C15.566 11.0206 15.3162 11.0181 15.1032 11.1131C14.3659 11.4439 13.6476 11.6081 12.9157 11.6081C12.1864 11.6081 11.4656 11.4347 10.7022 11.0872C10.4923 10.9914 10.2643 10.9731 10.0512 11.0614ZM10.3716 12.7664C11.1589 13.0648 12.1082 13.2747 12.9157 13.2747C13.717 13.2747 14.627 13.0789 15.3984 12.7939C16.1506 13.2222 16.6657 14.0239 16.6657 14.9414V15.7747H9.16574V14.9414C9.16574 13.9706 9.71232 13.1523 10.3716 12.7664Z" fill="#322C27" />
</svg>