<svg width="20" height="20" viewBox="0 0 20 20" fill="none" xmlns="http://www.w3.org/2000/svg">
  <path fill-rule="evenodd" clip-rule="evenodd" d="M1.66669 9.99984C1.66669 5.39746 5.39765 1.6665 10 1.6665C14.6024 1.6665 18.3334 5.39746 18.3334 9.99984C18.3334 14.6022 14.6024 18.3332 10 18.3332C5.39765 18.3332 1.66669 14.6022 1.66669 9.99984ZM9.37502 4.1665C9.37502 3.82133 9.65484 3.5415 10 3.5415C13.5669 3.5415 16.4584 6.433 16.4584 9.99984C16.4584 13.5667 13.5669 16.4582 10 16.4582C6.43318 16.4582 3.54169 13.5667 3.54169 9.99984C3.54169 9.65466 3.82151 9.37484 4.16669 9.37484C4.51186 9.37484 4.79169 9.65466 4.79169 9.99984C4.79169 12.8763 7.12354 15.2082 10 15.2082C12.8765 15.2082 15.2084 12.8763 15.2084 9.99984C15.2084 7.12335 12.8765 4.7915 10 4.7915C9.65484 4.7915 9.37502 4.51168 9.37502 4.1665ZM10 6.0415C9.65484 6.0415 9.37502 6.32133 9.37502 6.6665C9.37502 7.01168 9.65484 7.2915 10 7.2915C11.4958 7.2915 12.7084 8.50407 12.7084 9.99984C12.7084 11.4956 11.4958 12.7082 10 12.7082C9.65484 12.7082 9.37502 12.988 9.37502 13.3332C9.37502 13.6783 9.65484 13.9582 10 13.9582C12.1861 13.9582 13.9584 12.186 13.9584 9.99984C13.9584 7.81371 12.1861 6.0415 10 6.0415Z" fill="#322C27" />
</svg>