<svg width="22" height="22" viewBox="0 0 22 22" fill="none" xmlns="http://www.w3.org/2000/svg">
  <path opacity="0.986784" d="M15.5818 1.79053C15.3389 1.79053 15.0951 1.8767 14.9228 2.04812C13.5478 3.42312 13.5478 3.42312 13.0894 3.88145L6.67276 10.2981C6.50134 10.4704 6.41517 10.7143 6.41517 10.9572V14.6239C6.41517 15.1299 6.82584 15.5405 7.33184 15.5405C7.79017 15.5405 10.5402 15.5405 10.9985 15.5405C11.2414 15.5405 11.4852 15.4544 11.6576 15.2829L18.0742 8.86627C18.5326 8.40794 18.5326 8.40794 19.9076 7.03294C20.079 6.86061 20.1652 6.61678 20.1652 6.37386C20.1652 4.87419 19.7829 3.80262 18.9909 2.9932C18.1907 2.17737 17.1228 1.79053 15.5818 1.79053ZM6.41517 2.70719C4.39025 2.70719 2.7485 4.34894 2.7485 6.37386V15.5405C2.7485 17.5654 4.39025 19.2072 6.41517 19.2072H15.5818C17.6068 19.2072 19.2485 17.5654 19.2485 15.5405V11.8739C19.2485 11.3679 18.8378 10.9572 18.3318 10.9572C17.8258 10.9572 17.4152 11.3679 17.4152 11.8739V15.5405C17.4152 16.5534 16.5948 17.3739 15.5818 17.3739H6.41517C5.40225 17.3739 4.58184 16.5534 4.58184 15.5405V6.37386C4.58184 5.36094 5.40225 4.54053 6.41517 4.54053H10.0818C10.5878 4.54053 10.9985 4.12986 10.9985 3.62386C10.9985 3.11786 10.5878 2.70719 10.0818 2.70719H6.41517ZM15.9549 3.64126C16.7818 3.68984 17.3052 3.87868 17.6728 4.25452C18.0486 4.63768 18.2649 5.21612 18.3153 6.02737C17.8671 6.47562 17.5893 6.74146 17.4188 6.91287C16.6919 6.18687 15.7697 5.27293 15.0437 4.54601C15.2152 4.37459 15.5067 4.08951 15.9549 3.64126ZM13.7503 5.84772L16.1199 8.21089L10.597 13.7072C10.0177 13.7072 9.09275 13.7072 8.2485 13.7072V11.3587L13.7503 5.84772Z" fill="#322C27" />
</svg>