<svg width="16" height="16" viewBox="0 0 16 16" fill="none" xmlns="http://www.w3.org/2000/svg">
  <path fill-rule="evenodd" clip-rule="evenodd" d="M3.54112 7.17433C5.48669 3.72478 6.45948 2 7.99998 2C9.54048 2 10.5133 3.72477 12.4588 7.17432L12.7013 7.60418C14.318 10.4707 15.1264 11.904 14.3958 12.952C13.6652 14 11.8576 14 8.24242 14H7.75754C4.14235 14 2.33476 14 1.60415 12.952C0.873541 11.904 1.68192 10.4707 3.29868 7.60418L3.54112 7.17433ZM7.99998 4.83333C8.27612 4.83333 8.49998 5.05719 8.49998 5.33333V8.66667C8.49998 8.94281 8.27612 9.16667 7.99998 9.16667C7.72384 9.16667 7.49998 8.94281 7.49998 8.66667V5.33333C7.49998 5.05719 7.72384 4.83333 7.99998 4.83333ZM7.99998 11.3333C8.36817 11.3333 8.66665 11.0349 8.66665 10.6667C8.66665 10.2985 8.36817 10 7.99998 10C7.63179 10 7.33331 10.2985 7.33331 10.6667C7.33331 11.0349 7.63179 11.3333 7.99998 11.3333Z" fill="#F36A61" />
</svg>