<svg width="22" height="22" viewBox="0 0 22 22" fill="none" xmlns="http://www.w3.org/2000/svg">
  <path d="M19.2457 6.40812C19.2457 4.3832 17.6041 2.74146 15.5791 2.74146H11.9124C9.88738 2.74146 8.24572 4.3832 8.24572 6.40812C8.24572 6.91412 8.65611 7.32478 9.16238 7.32478C9.66866 7.32478 10.0791 6.91412 10.0791 6.40812C10.0791 5.3952 10.8998 4.57479 11.9124 4.57479H15.5791C16.5916 4.57479 17.4124 5.3952 17.4124 6.40812V15.5748C17.4124 16.5877 16.5916 17.4081 15.5791 17.4081H11.9124C10.8998 17.4081 10.0791 16.5877 10.0791 15.5748C10.0791 15.0688 9.66866 14.6581 9.16238 14.6581C8.65611 14.6581 8.24572 15.0688 8.24572 15.5748C8.24572 17.5997 9.88738 19.2414 11.9124 19.2414H15.5791C17.6041 19.2414 19.2457 17.5997 19.2457 15.5748V6.40812ZM12.8291 10.9914C12.8291 10.4854 12.4187 10.0748 11.9124 10.0748H4.98009L6.78483 8.24145L5.49572 6.95261L2.08691 10.3324C1.72886 10.6908 1.72886 11.2921 2.08682 11.6505L5.49572 15.0303L6.78473 13.7414L4.98009 11.9081H11.9124C12.4187 11.9081 12.8291 11.4974 12.8291 10.9914Z" fill="#F36A61" />
</svg>