<svg width="54" height="54" viewBox="0 0 54 54" fill="none" xmlns="http://www.w3.org/2000/svg">
  <path d="M15.7463 6.729C10.7761 6.729 6.74634 10.7588 6.74634 15.729V35.979V38.229C6.74634 43.1993 10.7761 47.229 15.7463 47.229H38.2463C43.2165 47.229 47.2463 43.1993 47.2463 38.229V35.979V15.729C47.2463 10.7588 43.2165 6.729 38.2463 6.729H15.7463ZM15.7463 11.229H38.2463C40.7325 11.229 42.7463 13.2428 42.7463 15.729L42.7553 29.67C41.0048 28.0455 39.2206 27.0285 37.2608 26.979C37.1911 26.9768 37.1933 26.979 37.1213 26.979C34.5631 26.979 31.7191 28.9455 29.8088 31.4092C29.3206 30.3067 28.8278 29.2178 28.2608 28.1738C25.6058 23.271 22.7056 20.2358 19.1213 20.229C16.0748 20.2223 13.4603 22.713 11.2283 26.124L11.2463 15.729C11.2463 13.2428 13.2601 11.229 15.7463 11.229ZM35.9963 15.729C34.7543 15.729 33.7463 16.737 33.7463 17.979C33.7463 19.221 34.7543 20.229 35.9963 20.229C37.2383 20.229 38.2463 19.221 38.2463 17.979C38.2463 16.737 37.2383 15.729 35.9963 15.729ZM19.1213 24.729C20.4308 24.7313 22.4198 26.7697 24.3233 30.2842C25.0793 31.6747 25.7566 33.207 26.364 34.7145C26.7285 35.6145 27.0098 36.303 27.1358 36.681C27.7501 38.5193 30.2431 38.7803 31.2151 37.104C31.3118 36.9375 31.4873 36.618 31.7776 36.1905C32.2636 35.4705 32.817 34.7415 33.3953 34.08C34.8398 32.424 36.2326 31.479 37.1213 31.479C38.019 31.5015 39.4051 32.4443 40.8473 34.08C41.4323 34.7438 41.9723 35.4705 42.465 36.1905C42.6203 36.4155 42.6428 36.5213 42.7463 36.681V38.229C42.7463 40.7153 40.7325 42.729 38.2463 42.729H15.7463C13.2601 42.729 11.2463 40.7153 11.2463 38.229V36.33C11.3881 35.9295 11.5771 35.4547 11.8786 34.7145C12.4928 33.207 13.1588 31.677 13.9193 30.2842C15.8385 26.763 17.8141 24.7268 19.1213 24.729Z" fill="#322C27" fill-opacity="0.8" />
</svg>