<svg width="20" height="20" viewBox="0 0 20 20" fill="none" xmlns="http://www.w3.org/2000/svg">
  <path d="M5.83674 2.49219C4.37474 2.49302 3.34474 3.51469 3.33674 4.99219V5.82552C3.11257 5.82552 2.60966 5.82552 2.50341 5.82552C2.00991 5.82552 1.62024 6.24635 1.67007 6.73718C1.76532 7.67635 2.32999 13.3239 2.42524 14.263C2.49707 14.8997 2.67074 15.343 2.97216 15.8514C3.5679 16.8572 4.64574 17.4922 5.83674 17.4922H14.1699C15.0524 17.4922 15.8699 17.1589 16.4874 16.5547C17.0932 15.963 17.3341 15.4555 17.5557 14.3155L18.3366 9.28886C18.4141 8.78469 18.0141 8.32552 17.5032 8.32552C17.2949 8.32552 16.8324 8.32552 16.6699 8.32552C16.6699 7.94385 16.6699 7.56969 16.6699 7.51803C16.6766 6.06636 15.6049 4.99719 14.1699 4.99219C13.4641 4.98969 13.2749 4.83552 12.7899 4.10719C12.0266 2.96136 11.3816 2.49219 10.0032 2.49219H5.83674ZM5.83674 4.15885H10.0032C10.7074 4.15885 10.8982 4.31552 11.3832 5.04385C12.1449 6.18718 12.7924 6.65385 14.1699 6.65885C14.6891 6.66052 15.0057 6.99303 15.0032 7.51803C15.0032 7.57136 15.0024 7.93885 15.0032 8.32552C14.3782 8.32552 14.3782 8.32552 12.5032 8.32552C11.7991 8.32552 11.6091 8.16969 11.1232 7.44052C10.3591 6.29469 9.71573 5.82552 8.33656 5.82552C7.76606 5.82552 6.3919 5.82552 5.0034 5.82552V4.99219C5.0064 4.43885 5.28874 4.15885 5.83674 4.15885ZM3.4409 7.49219C3.64757 7.49219 3.91674 7.49219 4.17007 7.49219C5.61732 7.49219 7.6234 7.49219 8.33656 7.49219C9.04073 7.49219 9.23073 7.64802 9.71657 8.37718C10.4807 9.52302 11.1241 9.99219 12.5032 9.99219C15.0032 9.99219 15.2716 9.99219 15.8366 9.99219C15.9516 9.99219 16.3849 9.99219 16.5141 9.99219L15.9149 14.0288C15.7582 14.8313 15.6741 15.0314 15.3416 15.3572C15.0324 15.6597 14.6124 15.8255 14.1699 15.8255H5.83674C5.24057 15.8255 4.70307 15.5222 4.4044 15.018C4.22023 14.7072 4.13557 14.468 4.0919 14.0805C4.00915 13.2639 3.61399 9.19885 3.4409 7.49219Z" fill="#322C27" />
</svg>