<svg width="20" height="20" viewBox="0 0 20 20" fill="none" xmlns="http://www.w3.org/2000/svg">
  <path d="M9.99815 1.67871C6.31623 1.67871 3.33148 4.6637 3.33148 8.34536C3.33148 11.2345 5.20465 14.522 7.73248 17.252C7.81415 17.3395 7.88023 17.4078 7.9669 17.4862C8.6819 18.127 9.42365 18.3537 9.99815 18.3453C10.0054 18.3453 10.0183 18.3453 10.0241 18.3453C10.6221 18.3453 11.4652 18.0762 12.2638 17.2778C14.6888 14.8528 16.6648 11.277 16.6648 8.34536C16.6648 4.6637 13.6801 1.67871 9.99815 1.67871ZM9.99815 3.34537C12.7596 3.34537 14.9981 5.5837 14.9981 8.34536C14.9981 10.7504 13.2084 13.937 11.0658 16.0795C10.6144 16.5312 10.2106 16.6787 9.99815 16.6787C9.98048 16.6787 9.9679 16.6787 9.97215 16.6787C9.78265 16.6812 9.4519 16.5895 9.08665 16.262C9.03831 16.2187 8.97715 16.1562 8.93048 16.1054C6.66315 13.6579 4.99815 10.7062 4.99815 8.34536C4.99815 5.5837 7.23673 3.34537 9.99815 3.34537ZM9.99815 5.84537C8.6174 5.84537 7.49815 6.96453 7.49815 8.34536C7.49815 9.72619 8.6174 10.8454 9.99815 10.8454C11.3789 10.8454 12.4981 9.72619 12.4981 8.34536C12.4981 6.96453 11.3789 5.84537 9.99815 5.84537ZM9.99815 7.51203C10.4584 7.51203 10.8315 7.88536 10.8315 8.34536C10.8315 8.80536 10.4584 9.17869 9.99815 9.17869C9.5379 9.17869 9.16481 8.80536 9.16481 8.34536C9.16481 7.88536 9.5379 7.51203 9.99815 7.51203Z" fill="#322C27" />
</svg>