<svg width="16" height="16" viewBox="0 0 16 16" fill="none" xmlns="http://www.w3.org/2000/svg">
  <path d="M13.0544 12.3472C14.0593 11.18 14.6667 9.6609 14.6667 7.99992C14.6667 6.33894 14.0593 4.81983 13.0544 3.65262L10.206 6.50111C10.4967 6.92825 10.6667 7.44423 10.6667 7.99992C10.6667 8.5556 10.4967 9.07159 10.206 9.49873L13.0544 12.3472Z" fill="white" />
  <path d="M12.3473 13.0543C11.1801 14.0592 9.66102 14.6666 8.00004 14.6666C6.33906 14.6666 4.81996 14.0592 3.65274 13.0543L6.50123 10.2058C6.92837 10.4966 7.44436 10.6666 8.00004 10.6666C8.55573 10.6666 9.07171 10.4966 9.49885 10.2058L12.3473 13.0543Z" fill="white" />
  <path d="M2.94564 12.3472L5.79412 9.49873C5.50334 9.07159 5.33337 8.5556 5.33337 7.99992C5.33337 7.44423 5.50334 6.92825 5.79412 6.50111L2.94564 3.65262C1.9408 4.81983 1.33337 6.33894 1.33337 7.99992C1.33337 9.6609 1.9408 11.18 2.94564 12.3472Z" fill="white" />
  <path d="M8.00004 5.33325C7.44436 5.33325 6.92837 5.50322 6.50123 5.794L3.65274 2.94552C4.81996 1.94068 6.33906 1.33325 8.00004 1.33325C9.66102 1.33325 11.1801 1.94068 12.3473 2.94552L9.49885 5.794C9.07171 5.50322 8.55573 5.33325 8.00004 5.33325Z" fill="white" />
</svg>