<svg width="20" height="20" viewBox="0 0 20 20" fill="none" xmlns="http://www.w3.org/2000/svg">
  <path d="M6.67172 1.67871C4.84088 1.67871 3.35838 3.1587 3.35838 4.9862L3.33172 5.81953C3.32255 6.47119 3.61838 7.32953 4.01005 7.85036L5.6284 10.012L4.06255 12.0695C3.65922 12.6012 3.35838 13.4853 3.35838 14.1528V15.0378C3.35838 16.8653 4.84088 18.3453 6.67172 18.3453H13.3517C15.1817 18.3453 16.665 16.8653 16.665 15.0378V14.2045C16.665 13.562 16.3959 12.6903 16.0126 12.1737L14.3951 10.012L15.9867 7.85036C16.3734 7.3312 16.665 6.49286 16.665 5.84536V4.9862C16.665 3.1587 15.1817 1.67871 13.3517 1.67871H6.67172ZM6.67172 3.34537H13.3517C14.26 3.34537 14.9951 4.07953 14.9951 4.9862V5.84536C14.9951 6.13453 14.8284 6.62869 14.6559 6.86119L12.6726 9.51703C12.4534 9.81202 12.4542 10.212 12.6726 10.507L14.6559 13.1887C14.8259 13.4187 14.9951 13.9187 14.9951 14.2045V15.0378C14.9951 15.9445 14.26 16.6787 13.3517 16.6787H6.67172C5.76338 16.6787 5.02756 15.9445 5.02756 15.0378V14.1528C5.02756 13.8487 5.20922 13.327 5.39339 13.0853L7.32421 10.507C7.54921 10.2103 7.57338 9.81452 7.35004 9.51703L5.3409 6.86119C5.1709 6.63452 4.99755 6.12786 5.00172 5.84536L5.02756 5.01203C5.02839 4.09287 5.76338 3.34537 6.67172 3.34537ZM9.15089 10.8453C8.68922 10.8453 8.31587 11.2187 8.31587 11.6787C8.31587 12.1387 8.68922 12.512 9.15089 12.512H10.82C11.2817 12.512 11.6551 12.1387 11.6551 11.6787C11.6551 11.2187 11.2817 10.8453 10.82 10.8453H9.15089ZM7.48089 13.3453C7.01922 13.3453 6.64588 13.7187 6.64588 14.1787C6.64588 14.6387 7.01922 15.012 7.48089 15.012H12.49C12.9517 15.012 13.3251 14.6387 13.3251 14.1787C13.3251 13.7187 12.9517 13.3453 12.49 13.3453H7.48089Z" fill="#322C27" />
</svg>