<svg width="20" height="20" viewBox="0 0 20 20" fill="none" xmlns="http://www.w3.org/2000/svg">
  <path d="M12.8116 2.50593C12.5216 2.38593 12.1626 2.42592 11.9001 2.68842C11.3171 3.27092 10.5803 3.75427 9.7371 4.11593C8.88069 4.4826 7.12244 4.95676 5.83852 4.94843C3.34094 4.93176 1.66569 6.34759 1.66577 9.08925C1.66577 11.4918 3.0296 12.8893 4.99269 13.2034L4.9991 14.9418C4.9991 16.3209 6.11835 17.4393 7.4991 17.4393C8.76785 17.4393 9.81294 16.4576 9.97427 15.2301C9.98202 15.1709 9.9991 14.9418 9.9991 14.1084C10.7477 14.4576 11.3679 15.0101 11.9001 15.5418C12.4251 16.0659 13.3324 15.6851 13.3324 14.9434C13.3324 14.1901 13.3284 12.8259 13.3284 11.4651C14.3108 11.1018 14.9991 10.1709 14.9991 9.11509C14.9991 8.05926 14.349 7.10428 13.3369 6.75011C13.3369 5.38928 13.3324 4.0401 13.3324 3.28677C13.3324 2.91594 13.1017 2.62676 12.8116 2.50593ZM14.8168 3.98926C14.6104 4.04259 14.4386 4.18178 14.322 4.37927C14.0889 4.77594 14.2116 5.29177 14.6084 5.52427C15.8749 6.2676 16.6658 7.62093 16.6658 9.11509C16.6658 10.6101 15.8758 11.9626 14.6084 12.7059C14.2115 12.9384 14.0631 13.4534 14.2959 13.8501C14.5289 14.2468 15.0448 14.3693 15.4418 14.1368C17.214 13.0976 18.3324 11.2068 18.3324 9.11509C18.3324 7.02426 17.2127 5.13259 15.4418 4.09343C15.2434 3.97676 15.0232 3.93593 14.8168 3.98926ZM11.6696 4.97093C11.6696 5.74177 11.6658 6.54511 11.6658 7.45011C11.6658 9.1151 11.6658 9.11511 11.6658 10.7801C11.6658 11.6851 11.6684 12.4559 11.6684 13.2268C9.98069 12.2309 8.2406 11.7893 6.66752 11.6476C6.66752 10.3768 6.66327 7.86343 6.66327 6.55426C6.8266 6.54676 7.0166 6.52594 7.29077 6.48761C8.35485 6.33511 9.4121 6.05844 10.4158 5.62844C10.8936 5.42427 11.2488 5.23927 11.6696 4.97093ZM4.99785 6.69426C4.99785 7.97426 4.9966 10.2359 4.9966 11.5159C3.91219 11.2159 3.33244 10.4501 3.33244 9.08925C3.33244 7.74426 3.85494 6.94676 4.99785 6.69426ZM6.66577 13.3301C6.9296 13.3393 7.88544 13.5093 8.32402 13.6201L8.33244 14.9418C8.33244 15.4018 7.95935 15.7743 7.4991 15.7743C7.03885 15.7743 6.66577 15.4018 6.66577 14.9418V13.3301Z" fill="#322C27" />
</svg>