<svg width="20" height="20" viewBox="0 0 20 20" fill="none" xmlns="http://www.w3.org/2000/svg">
  <path d="M1.64717 1.66556C1.18717 1.66181 0.817168 2.03864 0.813834 2.49889C0.810501 2.95914 1.18717 3.32847 1.64717 3.33222C2.26217 3.33722 2.75384 3.7488 3.13134 4.53014C3.48467 5.26055 3.588 5.86164 3.6005 5.93639L4.58967 12.3165C4.89301 13.836 6.33301 14.9989 7.84551 14.9989H13.7822C15.2947 14.9989 16.7413 13.8252 17.038 12.3426L18.0538 5.5718C18.2897 4.39364 17.4197 3.33222 16.1788 3.33222H4.38134C3.75467 2.2998 2.79967 1.67489 1.64717 1.66556ZM5.11051 4.99889H16.1788C16.368 4.99889 16.4497 5.09914 16.413 5.28539L15.3972 12.0562C15.263 12.7204 14.5005 13.3322 13.7822 13.3322H7.84551C7.12801 13.3322 6.37134 12.7337 6.2305 12.0301L5.26716 5.67597C5.238 5.49872 5.17051 5.2178 5.11051 4.99889ZM10.8138 6.66555C10.3538 6.66555 9.9805 7.03864 9.9805 7.49889V8.33222H9.14717C8.68717 8.33222 8.31384 8.7053 8.31384 9.16555C8.31384 9.6258 8.68717 9.99888 9.14717 9.99888H9.9805V10.8322C9.9805 11.2925 10.3538 11.6655 10.8138 11.6655C11.2738 11.6655 11.6472 11.2925 11.6472 10.8322V9.99888H12.4805C12.9405 9.99888 13.3138 9.6258 13.3138 9.16555C13.3138 8.7053 12.9405 8.33222 12.4805 8.33222H11.6472V7.49889C11.6472 7.03864 11.2738 6.66555 10.8138 6.66555ZM7.06384 15.8322C6.37384 15.8322 5.81384 16.3919 5.81384 17.0822C5.81384 17.7725 6.37384 18.3322 7.06384 18.3322C7.75384 18.3322 8.31384 17.7725 8.31384 17.0822C8.31384 16.3919 7.75384 15.8322 7.06384 15.8322ZM14.5638 15.8322C13.8738 15.8322 13.3138 16.3919 13.3138 17.0822C13.3138 17.7725 13.8738 18.3322 14.5638 18.3322C15.2538 18.3322 15.8138 17.7725 15.8138 17.0822C15.8138 16.3919 15.2538 15.8322 14.5638 15.8322Z" fill="#322C27" />
</svg>