<svg width="20" height="20" viewBox="0 0 20 20" fill="none" xmlns="http://www.w3.org/2000/svg">
  <path d="M4.9601 3.33154C3.2651 3.33154 1.93844 3.75987 1.70427 5.38904C1.62927 5.9107 1.79426 6.42404 2.17343 6.79488C2.36177 6.97904 2.56094 7.19821 2.82427 7.41988C3.48511 7.97738 4.32761 8.60404 5.11594 9.16487C7.28511 10.7065 8.99761 11.6649 10.0118 11.6649C11.026 11.6649 12.7385 10.7065 14.9076 9.16487C15.6968 8.60404 16.5393 7.97654 17.1993 7.41988C17.4626 7.19821 17.6618 6.97988 17.8501 6.79488C18.2293 6.42404 18.3943 5.9107 18.3193 5.38904C18.0851 3.75987 16.7585 3.33154 15.0635 3.33154H4.9601ZM1.67844 8.46154V13.3315C1.67844 15.1724 3.17094 16.6649 5.01177 16.6649H15.0118C16.8526 16.6649 18.3451 15.1724 18.3451 13.3315V8.46154C17.6618 9.11071 16.8985 9.78071 15.8193 10.5449C13.4559 12.2182 11.3335 13.3315 10.0118 13.3315C8.69011 13.3315 6.56762 12.2182 4.20428 10.5449C3.12428 9.78071 2.36177 9.11071 1.67844 8.46154Z" fill="#322C27" />
</svg>