<svg width="20" height="20" viewBox="0 0 20 20" fill="none" xmlns="http://www.w3.org/2000/svg">
  <path d="M1.6472 1.66556C1.18695 1.66181 0.817621 2.03864 0.813871 2.49889C0.810121 2.95914 1.18704 3.32847 1.6472 3.33222C2.26187 3.33722 2.75362 3.7488 3.13153 4.53014C3.48487 5.26055 3.58804 5.86164 3.60037 5.93639L4.58987 12.3165C4.89295 13.836 6.33312 14.9989 7.84512 14.9989H13.7822C15.2947 14.9989 16.7414 13.8252 17.038 12.3426L18.0539 5.5718C18.2897 4.39364 17.4197 3.33222 16.1789 3.33222H4.38153C3.75503 2.2998 2.79987 1.67489 1.6472 1.66556ZM5.1107 4.99889H16.1789C16.368 4.99889 16.4497 5.09914 16.413 5.28539L15.3972 12.0562C15.263 12.7204 14.5005 13.3322 13.7822 13.3322H7.84512C7.12762 13.3322 6.3712 12.7337 6.23054 12.0301L5.26704 5.67597C5.23796 5.49872 5.1707 5.2178 5.1107 4.99889ZM7.06387 15.8322C6.37354 15.8322 5.81387 16.3919 5.81387 17.0822C5.81387 17.7725 6.37354 18.3322 7.06387 18.3322C7.7542 18.3322 8.31387 17.7725 8.31387 17.0822C8.31387 16.3919 7.7542 15.8322 7.06387 15.8322ZM14.5639 15.8322C13.8739 15.8322 13.3139 16.3919 13.3139 17.0822C13.3139 17.7725 13.8739 18.3322 14.5639 18.3322C15.2539 18.3322 15.8139 17.7725 15.8139 17.0822C15.8139 16.3919 15.2539 15.8322 14.5639 15.8322Z" fill="#322C27" />
</svg>