<svg width="20" height="20" viewBox="0 0 20 20" fill="none" xmlns="http://www.w3.org/2000/svg">
  <path d="M4.99863 1.62744C3.61779 1.62744 2.49863 2.74661 2.49863 4.12744V14.1274C2.49863 15.9683 3.99113 17.4608 5.83196 17.4608H15.832C17.2128 17.4608 18.332 16.3416 18.332 14.9608V13.2941C18.332 11.9133 17.2128 10.7941 15.832 10.7941H13.8786L15.5978 9.07576C16.5736 8.0991 16.5736 6.50993 15.5978 5.5341L14.4253 4.36161C13.9378 3.87328 13.2944 3.63245 12.6553 3.63245C12.0153 3.63245 11.372 3.87328 10.8836 4.36161L9.16529 6.08077V4.12744C9.16529 2.74661 8.04613 1.62744 6.66529 1.62744C6.45696 1.62744 5.20696 1.62744 4.99863 1.62744ZM12.6811 5.29911C12.8928 5.29911 13.0911 5.37076 13.2536 5.5341L14.4253 6.70577C14.7511 7.03077 14.7511 7.55244 14.4253 7.87744L9.16529 13.1375V8.45076L12.082 5.5341C12.2445 5.37076 12.4695 5.29911 12.6811 5.29911ZM5.83196 12.4608C6.75279 12.4608 7.49863 13.2066 7.49863 14.1274C7.49863 15.0483 6.75279 15.7941 5.83196 15.7941C4.91113 15.7941 4.16529 15.0483 4.16529 14.1274C4.16529 13.6674 4.35862 13.2574 4.66029 12.9558C4.96196 12.6541 5.37196 12.4608 5.83196 12.4608ZM12.212 12.4608H15.832C16.292 12.4608 16.6653 12.8341 16.6653 13.2941V14.9608C16.6653 15.4208 16.292 15.7941 15.832 15.7941H8.87863L12.212 12.4608Z" fill="#322C27" />
</svg>