<svg width="28" height="28" viewBox="0 0 28 28" fill="none" xmlns="http://www.w3.org/2000/svg">
  <path fill-rule="evenodd" clip-rule="evenodd" d="M13.1183 2.28079C15.1016 1.1844 17.5403 1.1844 19.5236 2.28079C20.2583 2.6869 20.9439 3.34354 22.0577 4.41033C22.0936 4.44476 22.13 4.47961 22.1669 4.51489C22.2054 4.55176 22.2434 4.58814 22.2809 4.62406C23.3904 5.68606 24.0778 6.34404 24.5046 7.05188C25.6651 8.97655 25.6651 11.3533 24.5046 13.2779C24.0778 13.9858 23.3904 14.6438 22.2809 15.7058C22.2434 15.7417 22.2054 15.7781 22.1669 15.8149L13.4671 24.145C12.8496 24.7362 12.3464 25.2181 11.9036 25.5752C11.445 25.9451 10.9934 26.2304 10.4632 26.3828C9.72592 26.5948 8.94068 26.5948 8.20336 26.3828C7.67323 26.2304 7.22163 25.9451 6.76299 25.5752C6.32026 25.2181 5.81705 24.7363 5.19961 24.145L5.14378 24.0916C4.52674 23.5008 4.02339 23.0188 3.65005 22.5945C3.26451 22.1563 2.95968 21.717 2.79557 21.1937C2.56814 20.4685 2.56814 19.6944 2.79557 18.9692C2.95968 18.4459 3.26451 18.0066 3.65005 17.5684C4.02339 17.1441 4.52674 16.6621 5.14379 16.0713L13.7193 7.86023C13.7501 7.83083 13.7804 7.80171 13.8104 7.7729C14.2414 7.35928 14.6053 7.01 15.0259 6.81606C15.7664 6.47459 16.626 6.47459 17.3665 6.81606C17.7871 7.01 18.151 7.35928 18.582 7.7729C18.612 7.80171 18.6423 7.83083 18.673 7.86023C18.7048 7.89066 18.7363 7.92073 18.7675 7.9505C19.1957 8.35937 19.5638 8.71095 19.7703 9.12146C20.1394 9.85525 20.1394 10.7135 19.7703 11.4473C19.649 11.6885 19.4874 11.8884 19.3142 12.075C19.1488 12.253 18.937 12.4558 18.6905 12.6918L10.0632 20.9524C9.71418 21.2866 9.16029 21.2746 8.82608 20.9256C8.49186 20.5765 8.50389 20.0226 8.85294 19.6884L17.4627 11.4445C17.7315 11.1871 17.9057 11.0199 18.0319 10.884C18.1542 10.7524 18.1916 10.6914 18.2069 10.661C18.3272 10.4219 18.3272 10.1469 18.2069 9.90777C18.1552 9.805 18.0401 9.67704 17.4627 9.12424C16.8888 8.57473 16.7511 8.45938 16.6337 8.40525C16.3582 8.2782 16.0342 8.2782 15.7586 8.40525C15.6413 8.45938 15.5035 8.57473 14.9296 9.12424L6.38222 17.3084C5.73024 17.9326 5.28182 18.363 4.96393 18.7244C4.65259 19.0782 4.52506 19.3026 4.46538 19.4929C4.34487 19.8771 4.34487 20.2858 4.46538 20.67C4.52506 20.8603 4.65259 21.0847 4.96393 21.4385C5.28182 21.7999 5.73024 22.2303 6.38222 22.8545C7.03398 23.4786 7.48377 23.9082 7.86169 24.2131C8.23031 24.5104 8.4718 24.6391 8.68694 24.701C9.10827 24.8221 9.55833 24.8221 9.97966 24.701C10.1948 24.6391 10.4363 24.5104 10.8049 24.2131C11.1828 23.9082 11.6326 23.4786 12.2844 22.8545L20.9566 14.5509C22.2167 13.3443 22.7154 12.8562 23.006 12.3743C23.8313 11.0054 23.8313 9.32438 23.006 7.95553C22.7154 7.47365 22.2167 6.98549 20.9566 5.7789C19.6985 4.57431 19.1862 4.09383 18.677 3.81234C17.2205 3.00721 15.4214 3.00721 13.965 3.81234C13.4558 4.09383 12.9434 4.57431 11.6854 5.7789L4.69769 12.4696C4.34864 12.8038 3.79475 12.7918 3.46054 12.4427C3.12633 12.0937 3.13836 11.5398 3.4874 11.2056L10.4751 4.51489C10.5119 4.47961 10.5483 4.44475 10.5843 4.41033C11.6981 3.34354 12.3837 2.6869 13.1183 2.28079Z" fill="#322C27" />
</svg>