<svg width="20" height="20" viewBox="0 0 20 20" fill="none" xmlns="http://www.w3.org/2000/svg">
  <path d="M1.64717 1.66556C1.18717 1.66181 0.817168 2.03864 0.813834 2.49889C0.810501 2.95914 1.18717 3.32847 1.64717 3.33222C2.26217 3.33722 2.75384 3.7488 3.13134 4.53014C3.48468 5.26055 3.588 5.86164 3.6005 5.93639L4.58968 12.3166C4.89301 13.836 6.333 14.9989 7.8455 14.9989H13.7822C15.2947 14.9989 16.7413 13.8252 17.038 12.3426L18.0538 5.5718C18.2897 4.39364 17.4197 3.33222 16.1788 3.33222H4.38134C3.75468 2.29981 2.79967 1.67489 1.64717 1.66556ZM5.11051 4.99889H16.1788C16.368 4.99889 16.4497 5.09914 16.413 5.28539L15.3972 12.0562C15.263 12.7204 14.5005 13.3322 13.7822 13.3322H7.8455C7.128 13.3322 6.37134 12.7337 6.23051 12.0301L5.26717 5.67597C5.238 5.49872 5.17051 5.2178 5.11051 4.99889ZM13.3138 6.66555C13.1005 6.66555 12.878 6.73722 12.7147 6.89989L10.8138 8.80097L9.74634 7.73322C9.42051 7.4078 8.87385 7.4078 8.54802 7.73322C8.22301 8.05872 8.22301 8.60572 8.54802 8.93122L10.2147 10.5979C10.5405 10.9233 11.0872 10.9233 11.413 10.5979L13.913 8.09789C14.238 7.77239 14.238 7.22539 13.913 6.89989C13.7497 6.73722 13.5272 6.66555 13.3138 6.66555ZM7.06384 15.8322C6.37384 15.8322 5.81384 16.3919 5.81384 17.0822C5.81384 17.7726 6.37384 18.3322 7.06384 18.3322C7.75384 18.3322 8.31384 17.7726 8.31384 17.0822C8.31384 16.3919 7.75384 15.8322 7.06384 15.8322ZM14.5639 15.8322C13.8739 15.8322 13.3138 16.3919 13.3138 17.0822C13.3138 17.7726 13.873 18.3322 14.5639 18.3322C15.2539 18.3322 15.8139 17.7726 15.8139 17.0822C15.8139 16.3919 15.2547 15.8322 14.5639 15.8322Z" fill="#322C27" />
</svg>