<svg width="20" height="20" viewBox="0 0 20 20" fill="none" xmlns="http://www.w3.org/2000/svg">
  <path d="M6.69067 1.67871C4.76483 1.67871 3.33899 2.97371 3.33149 5.01204C3.32983 5.5537 3.49316 6.11621 3.79983 6.73037C4.04066 7.21204 4.3565 7.70786 4.73817 8.21536C5.02733 8.60036 5.34067 8.96703 5.649 9.3087C5.7315 9.40036 5.7665 9.44786 5.8315 9.51703V10.507C5.7665 10.5762 5.7315 10.6237 5.649 10.7153C5.34067 11.057 5.02733 11.4237 4.73817 11.8087C4.3565 12.3162 4.04066 12.812 3.79983 13.2937C3.49316 13.9078 3.32983 14.4703 3.33149 15.012C3.33899 17.0503 4.76483 18.3453 6.69067 18.3453H13.3573C15.2807 18.3453 16.6723 17.0545 16.6648 15.012C16.6632 14.4728 16.5023 13.9062 16.1965 13.2937C15.9565 12.8153 15.6365 12.3137 15.2582 11.8087C14.969 11.422 14.6557 11.0587 14.3473 10.7153C14.2648 10.6237 14.2298 10.5762 14.1648 10.507V9.51703C14.2298 9.44786 14.2648 9.40036 14.3473 9.3087C14.6557 8.96536 14.969 8.60202 15.2582 8.21536C15.6365 7.71036 15.9565 7.20871 16.1965 6.73037C16.5032 6.11788 16.6632 5.5512 16.6648 5.01204C16.6723 2.96954 15.2807 1.67871 13.3573 1.67871H6.69067ZM6.69067 3.34537H13.3573C14.3857 3.34537 15.0023 3.92204 14.9982 5.01204C14.9973 5.2537 14.8873 5.59869 14.6857 6.00202C14.4957 6.38119 14.2273 6.79454 13.9048 7.22537C13.6473 7.56953 13.3748 7.90619 13.0973 8.21536C12.9315 8.39952 12.8007 8.5112 12.7323 8.57953C12.5765 8.7362 12.4982 8.95786 12.4982 9.17869V10.8454C12.4982 11.0662 12.5765 11.2878 12.7323 11.4445C12.8007 11.5128 12.9315 11.6245 13.0973 11.8087C13.3748 12.1179 13.6473 12.4545 13.9048 12.7987C14.2273 13.2295 14.4957 13.6429 14.6857 14.022C14.8873 14.4254 14.9973 14.7703 14.9982 15.012C15.0023 16.102 14.3857 16.6787 13.3573 16.6787H6.69067C5.64983 16.6787 5.00233 16.0953 4.99816 15.012C4.99733 14.772 5.10983 14.4237 5.31066 14.022C5.50066 13.642 5.76734 13.2312 6.09151 12.7987C6.34901 12.4562 6.6215 12.1162 6.899 11.8087C7.06484 11.6254 7.19566 11.512 7.26399 11.4445C7.42066 11.2878 7.49816 11.067 7.49816 10.8454V9.17869C7.49816 8.95703 7.42066 8.7362 7.26399 8.57953C7.19566 8.51203 7.06484 8.39869 6.899 8.21536C6.6215 7.90786 6.34901 7.56787 6.09151 7.22537C5.76651 6.79287 5.50066 6.38202 5.31066 6.00202C5.10983 5.60036 4.99733 5.25204 4.99816 5.01204C5.00233 3.92871 5.64983 3.34537 6.69067 3.34537ZM7.57649 6.6787C8.35316 7.64536 9.16483 8.00953 9.16483 9.17869C9.16483 10.8454 9.16483 10.3445 9.16483 10.8454C9.16483 12.512 7.49816 12.512 6.66483 15.012H13.3315C12.4982 12.512 10.8315 12.512 10.8315 10.8454C10.8315 10.5304 10.8315 10.012 10.8315 9.17869C10.8315 8.00869 11.6423 7.64703 12.4198 6.6787C11.6548 6.66537 8.33983 6.6637 7.57649 6.6787Z" fill="#322C27" />
</svg>