<svg width="12" height="12" viewBox="0 0 12 12" fill="none" xmlns="http://www.w3.org/2000/svg">
  <path d="M5.99954 0.976562C3.23804 0.976562 1.00904 3.21506 0.999542 5.97656C0.990042 8.73406 3.24054 10.9866 5.99954 10.9921C8.75854 10.9976 11.0045 8.71456 10.9995 5.97656C10.9945 3.21506 8.76104 0.976562 5.99954 0.976562ZM5.99954 1.97656C8.20854 1.97656 9.99953 3.76756 9.99953 5.97656C9.99953 7.10156 9.53103 8.11555 8.78353 8.84255C8.41503 8.04605 7.62454 7.47656 6.71804 7.47656C6.53854 7.47656 5.46054 7.47656 5.28054 7.47656C4.37555 7.47656 3.58655 8.03905 3.21805 8.83605C2.47105 8.10905 1.99954 7.10156 1.99954 5.97656C1.99954 3.76756 3.79054 1.97656 5.99954 1.97656ZM5.99954 2.97656C4.89504 2.97656 3.99954 3.87206 3.99954 4.97656C3.99954 6.08106 4.89504 6.97656 5.99954 6.97656C7.10404 6.97656 7.99954 6.08106 7.99954 4.97656C7.99954 3.87206 7.10404 2.97656 5.99954 2.97656ZM5.99954 3.97656C6.55204 3.97656 6.99954 4.42406 6.99954 4.97656C6.99954 5.52906 6.55204 5.97656 5.99954 5.97656C5.44704 5.97656 4.99954 5.52906 4.99954 4.97656C4.99954 4.42406 5.44704 3.97656 5.99954 3.97656ZM5.28054 8.47656C5.46054 8.47656 6.53854 8.47656 6.71804 8.47656C7.27604 8.47656 7.78103 8.88355 7.95803 9.45705C7.24403 9.87855 6.44654 9.97655 5.99954 9.97655C5.54054 9.97655 4.77904 9.87355 4.04704 9.47005C4.22254 8.89155 4.72754 8.47656 5.28054 8.47656Z" fill="white" />
</svg>