<svg width="20" height="20" viewBox="0 0 20 20" fill="none" xmlns="http://www.w3.org/2000/svg">
  <path d="M9.99818 1.62744C7.69701 1.62744 5.83151 3.49294 5.83151 5.79411C5.83151 8.09527 7.69701 9.96077 9.99818 9.96077C12.2993 9.96077 14.1648 8.09527 14.1648 5.79411C14.1648 3.49294 12.2993 1.62744 9.99818 1.62744ZM9.99818 3.29411C11.3789 3.29411 12.4982 4.41336 12.4982 5.79411C12.4982 7.17486 11.3789 8.29411 9.99818 8.29411C8.61743 8.29411 7.49818 7.17486 7.49818 5.79411C7.49818 4.41336 8.61743 3.29411 9.99818 3.29411ZM7.05551 11.0545C4.87693 11.6499 3.33151 13.5443 3.33151 15.7941V17.4608C3.33151 17.921 3.7046 18.2941 4.16485 18.2941H15.8315C16.2918 18.2941 16.6648 17.921 16.6648 17.4608V15.7941C16.6648 13.5443 15.1194 11.6499 12.9408 11.0545C12.7541 11.0034 12.5706 11.027 12.394 11.1066C11.6311 11.4504 10.8189 11.6274 9.99818 11.6274C9.17743 11.6274 8.36526 11.4504 7.60235 11.1066C7.42576 11.027 7.24226 11.0034 7.05551 11.0545ZM7.39401 12.7212C8.23551 13.0394 9.09793 13.2941 9.99818 13.2941C10.8984 13.2941 11.7608 13.0394 12.6023 12.7212C14.0218 13.1512 14.9982 14.3494 14.9982 15.7941V16.6274H4.99818V15.7941C4.99818 14.3494 5.97451 13.1512 7.39401 12.7212Z" fill="#322C27" />
</svg>