<svg width="20" height="20" viewBox="0 0 20 20" fill="none" xmlns="http://www.w3.org/2000/svg">
  <path opacity="0.997797" d="M5.82565 2.44141C3.98481 2.44141 2.49231 3.93382 2.49231 5.77474V14.1081C2.49231 15.949 3.98481 17.4414 5.82565 17.4414H14.159C15.9998 17.4414 17.4923 15.949 17.4923 14.1081V5.77474C17.4923 3.93382 15.9998 2.44141 14.159 2.44141H5.82565ZM5.82565 4.10807H14.159C15.0798 4.10807 15.8257 4.85424 15.8257 5.77474V14.1081C15.8257 14.7205 15.4798 15.26 14.9881 15.5497C14.8281 13.5817 12.714 12.4414 9.99232 12.4414C7.27065 12.4414 5.11482 13.6122 4.98398 15.5552C4.49148 15.2656 4.15898 14.7205 4.15898 14.1081V5.77474C4.15898 4.85424 4.90481 4.10807 5.82565 4.10807ZM9.99232 5.77474C8.38148 5.77474 7.07565 7.08057 7.07565 8.69141C7.07565 10.3022 8.38148 11.6081 9.99232 11.6081C11.6032 11.6081 12.909 10.3022 12.909 8.69141C12.909 7.08057 11.6032 5.77474 9.99232 5.77474ZM9.99232 7.44141C10.6823 7.44141 11.2423 8.00107 11.2423 8.69141C11.2423 9.38174 10.6823 9.94141 9.99232 9.94141C9.30232 9.94141 8.74231 9.38174 8.74231 8.69141C8.74231 8.00107 9.30232 7.44141 9.99232 7.44141ZM9.99232 14.1081C12.024 14.1081 13.3257 14.8662 13.3257 15.6446V15.7747H6.65898V15.6446C6.65898 14.8662 7.96065 14.1081 9.99232 14.1081Z" fill="#322C27" />
</svg>