<svg width="20" height="20" viewBox="0 0 20 20" fill="none" xmlns="http://www.w3.org/2000/svg">
  <path d="M10.0059 2.49219C8.29423 2.49219 6.65924 3.06636 5.34424 4.10719C4.98341 4.39219 4.9284 4.91801 5.21423 5.27885C5.50007 5.63968 6.02507 5.69468 6.38591 5.40885C7.40841 4.59968 8.6734 4.15885 10.0059 4.15885C13.2276 4.15885 15.8392 6.77052 15.8392 9.99218H14.1726L16.6726 13.3255L19.1726 9.99218H17.5059C17.5059 5.84968 14.1484 2.49219 10.0059 2.49219ZM3.33923 6.65885L0.839233 9.99218H2.5059C2.5059 14.1347 5.8634 17.4922 10.0059 17.4922C11.7184 17.4922 13.3526 16.9188 14.6676 15.8772C15.0284 15.5922 15.0834 15.0663 14.7976 14.7055C14.5117 14.3447 13.9867 14.2897 13.6259 14.5755C12.6026 15.3855 11.3392 15.8255 10.0059 15.8255C6.78423 15.8255 4.17257 13.2138 4.17257 9.99218H5.83923L3.33923 6.65885Z" fill="#322C27" />
</svg>