<svg width="22" height="22" viewBox="0 0 22 22" fill="none" xmlns="http://www.w3.org/2000/svg">
  <path d="M8.22052 2.25082C6.92069 2.66332 5.79961 3.33616 4.81144 4.25649C4.50619 4.54066 4.4127 5.00633 4.6107 5.373C5.34495 6.73058 4.57677 8.18349 2.92036 8.26691C2.51519 8.28708 2.15678 8.58775 2.06144 8.98283C1.89736 9.66575 1.83228 10.2377 1.83228 10.9876C1.83228 11.6173 1.9001 12.3305 2.03302 12.9648C2.11552 13.3608 2.46019 13.6459 2.86353 13.6808C4.53003 13.8247 5.35503 15.0961 4.6107 16.7167C4.4457 17.077 4.52086 17.5078 4.81144 17.7773C5.78494 18.6775 6.90327 19.3127 8.22052 19.7252C8.59635 19.8426 9.02077 19.7005 9.25177 19.3815C10.2711 17.9707 11.7497 17.9662 12.7177 19.3815C12.9459 19.7142 13.3639 19.8747 13.7489 19.7537C15.0204 19.3531 16.2047 18.672 17.1864 17.7773C17.4889 17.5014 17.5687 17.055 17.3872 16.6883C16.6245 15.1492 17.5018 13.7367 19.0766 13.7092C19.4946 13.7018 19.8668 13.4277 19.9649 13.0217C20.1234 12.3644 20.1656 11.7924 20.1656 10.9876C20.1656 10.2964 20.084 9.61533 19.9364 8.95441C19.8429 8.53549 19.4772 8.2385 19.0482 8.23758C17.4981 8.23483 16.6291 6.71133 17.3872 5.373C17.598 5.00083 17.532 4.54433 17.2149 4.25649C16.2157 3.34899 14.9974 2.63949 13.7205 2.25082C13.3282 2.13166 12.9111 2.27833 12.6893 2.623C11.8038 3.99891 10.1501 4.02274 9.28019 2.65233C9.05744 2.30033 8.61652 2.12524 8.22052 2.25082ZM13.792 4.19783C14.4181 4.46 14.9122 4.73408 15.4796 5.164C14.8141 7.26958 15.9425 9.45674 18.28 9.98933C18.3378 10.3679 18.3323 10.5971 18.3323 10.9876C18.3323 11.4542 18.3387 11.6182 18.2855 11.9556C15.9581 12.4377 14.8068 14.5635 15.4549 16.8103C14.8975 17.2145 14.4988 17.495 13.7994 17.7654C12.1567 16.0934 9.87603 16.0201 8.19853 17.7764C7.54403 17.4886 7.04079 17.2328 6.53204 16.8029C7.1627 14.5213 6.09662 12.5514 3.72978 11.9537C3.62437 11.5357 3.66653 10.3551 3.72703 9.99667C6.17453 9.41 7.13887 7.24391 6.53112 5.15758C7.06828 4.75333 7.55137 4.45908 8.17929 4.20425C9.76054 5.813 12.1347 5.97341 13.792 4.19783ZM10.9989 7.32091C8.97403 7.32091 7.33228 8.96266 7.33228 10.9876C7.33228 13.0134 8.97403 14.6542 10.9989 14.6542C13.0239 14.6542 14.6656 13.0134 14.6656 10.9876C14.6656 8.96266 13.0239 7.32091 10.9989 7.32091ZM10.9989 9.15425C12.0119 9.15425 12.8323 9.97558 12.8323 10.9876C12.8323 12.0005 12.0119 12.8209 10.9989 12.8209C9.98603 12.8209 9.16561 12.0005 9.16561 10.9876C9.16561 9.97558 9.98603 9.15425 10.9989 9.15425Z" fill="white" />
</svg>