<svg width="20" height="20" viewBox="0 0 20 20" fill="none" xmlns="http://www.w3.org/2000/svg">
  <path d="M6.65892 1.66553C6.19892 1.66553 5.82558 2.03886 5.82558 2.49886C3.98475 2.49886 2.49225 3.99136 2.49225 5.83219V14.1655C2.49225 16.0064 3.98475 17.4989 5.82558 17.4989H14.1589C15.9997 17.4989 17.4922 16.0064 17.4922 14.1655V5.83219C17.4922 3.99136 15.9997 2.49886 14.1589 2.49886C14.1589 2.03886 13.7856 1.66553 13.3256 1.66553C12.8656 1.66553 12.4922 2.03886 12.4922 2.49886H9.99225H7.49225C7.49225 2.03886 7.11892 1.66553 6.65892 1.66553ZM5.82558 4.16553C5.82558 4.49219 5.82558 4.85386 5.82558 4.99886C5.82558 6.40636 7.07059 7.49886 8.55975 7.49886H11.4247C12.9139 7.49886 14.1589 6.40636 14.1589 4.99886C14.1589 4.85386 14.1589 4.51386 14.1589 4.16553C15.0797 4.16553 15.8256 4.91136 15.8256 5.83219V14.1655C15.8256 15.0864 15.0797 15.8322 14.1589 15.8322H5.82558C4.90475 15.8322 4.15892 15.0864 4.15892 14.1655V5.83219C4.15892 4.91136 4.90475 4.16553 5.82558 4.16553ZM7.49225 4.16553H9.99225H12.4922C12.4922 4.51386 12.4922 4.85386 12.4922 4.99886C12.4922 5.43219 12.0389 5.83219 11.4247 5.83219H8.55975C7.94559 5.83219 7.49225 5.43219 7.49225 4.99886C7.49225 4.85386 7.49225 4.49219 7.49225 4.16553ZM13.3256 8.33219C12.8656 8.33219 12.4922 8.70553 12.4922 9.16553V13.3322C12.4922 13.7922 12.8656 14.1655 13.3256 14.1655C13.7856 14.1655 14.1589 13.7922 14.1589 13.3322V9.16553C14.1589 8.70553 13.7856 8.33219 13.3256 8.33219ZM9.99225 9.99886C9.53225 9.99886 9.15892 10.3722 9.15892 10.8322V13.3322C9.15892 13.7922 9.53225 14.1655 9.99225 14.1655C10.4522 14.1655 10.8256 13.7922 10.8256 13.3322V10.8322C10.8256 10.3722 10.4522 9.99886 9.99225 9.99886ZM6.65892 11.6655C6.19892 11.6655 5.82558 12.0389 5.82558 12.4989V13.3322C5.82558 13.7922 6.19892 14.1655 6.65892 14.1655C7.11892 14.1655 7.49225 13.7922 7.49225 13.3322V12.4989C7.49225 12.0389 7.11892 11.6655 6.65892 11.6655Z" fill="#322C27" />
</svg>