<svg width="12" height="12" viewBox="0 0 12 12" fill="none" xmlns="http://www.w3.org/2000/svg">
  <path d="M3.72642 1.35633C3.9138 0.881222 4.5862 0.881223 4.77358 1.35633L5.35426 2.82866C5.41147 2.97371 5.52629 3.08853 5.67134 3.14574L7.14367 3.72642C7.61878 3.9138 7.61878 4.5862 7.14367 4.77358L5.67134 5.35426C5.52629 5.41147 5.41147 5.52629 5.35426 5.67134L4.77358 7.14367C4.5862 7.61878 3.9138 7.61878 3.72642 7.14367L3.14574 5.67134C3.08853 5.52629 2.97371 5.41147 2.82866 5.35426L1.35633 4.77358C0.881222 4.5862 0.881223 3.9138 1.35633 3.72642L2.82866 3.14574C2.97371 3.08853 3.08853 2.97371 3.14574 2.82866L3.72642 1.35633Z" fill="#322C27" />
  <path d="M8.46227 6.69582C8.56524 6.43473 8.93476 6.43473 9.03773 6.69582L9.48807 7.83767C9.51951 7.91739 9.58261 7.98049 9.66233 8.01193L10.8042 8.46227C11.0653 8.56524 11.0653 8.93476 10.8042 9.03773L9.66233 9.48807C9.58261 9.51951 9.51951 9.58261 9.48807 9.66233L9.03773 10.8042C8.93476 11.0653 8.56524 11.0653 8.46227 10.8042L8.01193 9.66233C7.98049 9.58261 7.91739 9.51951 7.83767 9.48807L6.69582 9.03773C6.43473 8.93476 6.43473 8.56524 6.69582 8.46227L7.83767 8.01193C7.91739 7.98049 7.98049 7.91739 8.01193 7.83767L8.46227 6.69582Z" fill="#322C27" />
</svg>