<svg width="20" height="20" viewBox="0 0 20 20" fill="none" xmlns="http://www.w3.org/2000/svg">
  <path d="M7.38178 2.44141C6.35094 2.44141 5.41344 3.12558 5.10844 4.10558L4.04844 4.10807C2.74427 4.10807 1.67844 5.17308 1.67844 6.47725V9.31639C1.67844 9.93139 1.99844 10.7039 2.43344 11.1389L7.98013 16.6856C8.9743 17.6797 10.6068 17.6797 11.6001 16.6856L12.5676 15.7089C13.4726 15.8972 14.316 15.6364 14.9335 15.0189L17.5901 12.3631C18.5835 11.3689 18.5835 9.73723 17.5901 8.74307L12.0434 3.19641C11.6084 2.76141 10.8351 2.44141 10.2201 2.44141H7.38178ZM7.38178 4.10807H10.2201C10.3935 4.10807 10.7226 4.24641 10.8451 4.36808L16.4185 9.94139C16.761 10.2839 16.761 10.8222 16.4185 11.1647L13.736 13.8472C13.3926 14.1906 12.8551 14.1906 12.5118 13.8472C12.5118 13.8472 7.63429 8.97056 6.93846 8.27473C6.81679 8.15223 6.67845 7.82223 6.67845 7.64973V4.81058C6.67845 4.42725 6.99761 4.10807 7.38178 4.10807ZM4.04844 5.77473H5.01178V7.64973C5.01178 8.26473 5.33178 9.03724 5.76678 9.47224C6.43679 10.1422 10.7668 14.4722 11.1051 14.8106L10.4026 15.5139C10.0593 15.8572 9.52179 15.8572 9.17845 15.5139L3.60512 9.94139C3.48345 9.81889 3.34511 9.48889 3.34511 9.31639V6.47725C3.34511 6.09391 3.66427 5.77473 4.04844 5.77473ZM9.17845 5.77473C8.71845 5.77473 8.34512 6.14723 8.34512 6.60806C8.34512 7.06806 8.71845 7.4414 9.17845 7.4414C9.63845 7.4414 10.0118 7.06806 10.0118 6.60806C10.0118 6.14723 9.63845 5.77473 9.17845 5.77473Z" fill="#322C27" />
</svg>