<svg width="20" height="20" viewBox="0 0 20 20" fill="none" xmlns="http://www.w3.org/2000/svg">
  <path d="M10.0119 1.66553C8.62805 1.66636 7.58655 2.38886 6.75672 3.85303L2.61605 11.4314C1.97522 12.5489 1.67264 13.3347 1.67855 14.1655C1.69189 16.0255 3.18722 17.4922 5.01188 17.4989H15.0119C16.8388 17.4989 18.3383 16.0539 18.3452 14.1655C18.3482 13.3372 18.0222 12.5014 17.3817 11.4314L13.2931 3.90552C12.5258 2.43968 11.4146 1.66469 10.0119 1.66553ZM10.0119 3.33219C10.7471 3.33219 11.3054 3.72469 11.8087 4.68636L15.9494 12.2647C16.4641 13.1255 16.6802 13.7122 16.6786 14.1655C16.6751 15.1214 15.9344 15.8322 15.0119 15.8322H5.01188C4.09722 15.8289 3.35197 15.1055 3.34522 14.1655C3.34188 13.7022 3.56022 13.1355 4.07438 12.2389L8.18897 4.68636C8.74422 3.70636 9.28563 3.33219 10.0119 3.33219ZM10.0119 6.66553C9.55163 6.66553 9.17855 7.03886 9.17855 7.49886V10.8322C9.17855 11.2922 9.55163 11.6655 10.0119 11.6655C10.4721 11.6655 10.8452 11.2922 10.8452 10.8322V7.49886C10.8452 7.03886 10.4721 6.66553 10.0119 6.66553ZM10.0119 12.4989C9.55163 12.4989 9.17855 12.8722 9.17855 13.3322C9.17855 13.7922 9.55163 14.1655 10.0119 14.1655C10.4721 14.1655 10.8452 13.7922 10.8452 13.3322C10.8452 12.8722 10.4721 12.4989 10.0119 12.4989Z" fill="#322C27" />
</svg>